# xmcd
#
# Track frame offsets:
# 150
# 18455
# 31322
# 48989
# 64646
# 78158
# 92247
# 104395
# 117423
# 128783
# 151854
# 168907
# 182845
# 195439
# 211501
# 224297
#
# Disc length: 3196 seconds
#
#
# Revision: 0
# Processed by: cddbd v1.5.1PL2 Copyright (c) Steve Scherf et al.
# Submitted via: FreeRIP 2.942 
#
DISCID=cb0c7a10
DTITLE=DIVERSOS - AS MAIS SAFADAS DO BRASIL
DYEAR=1900
DGENRE=SERTANEJO
TTITLE0=EUTREPOSEMIA
TTITLE1=VONTADE DE METER
TTITLE2=MULHER DE AMIGO MEU
TTITLE3=A COISA
TTITLE4=A TEPADEIRA DA VIZINHA
TTITLE5=O GAMBA
TTITLE6=REI DA ZONA
TTITLE7=GARAGEM DA VIZINHA
TTITLE8=EU TO PARPANDO
TTITLE9=EU QUERO ME CASAR
TTITLE10=LOROTA
TTITLE11=JOGO DE TRUCO
TTITLE12=COMER COMER
TTITLE13=COMIDA A KILO
TTITLE14=O PERNILONGO
TTITLE15=CHUMBO TROCADO
EXTD=
EXTT0=
EXTT1=
EXTT2=
EXTT3=
EXTT4=
EXTT5=
EXTT6=
EXTT7=
EXTT8=
EXTT9=
EXTT10=
EXTT11=
EXTT12=
EXTT13=
EXTT14=
EXTT15=
PLAYORDER=
